# xmcd CD database file
#
# Track frame offsets:
#	150
#	17610
#	31759
#	46820
#	61355
#	79090
#	98820
#	116843
#	134465
#	148228
#	166008
#
# Disc length: 2411 seconds
#
# Revision: 0
# Processed by: cddbd v1.5.2PL0 Copyright (c) Steve Scherf et al.
# Submitted via: CDex 1.51
#
DISCID=8b09690b
DTITLE=Spleen - The Murder of Lilly Stone
DYEAR=2011
DGENRE=Blues
TTITLE0=Ordinary Jesus
TTITLE1=The Doo Song
TTITLE2=Season Ticket
TTITLE3=Sweet Without
TTITLE4=Laundry Shift
TTITLE5=My Black Submarine
TTITLE6=Dorian Gray
TTITLE7=Shadows
TTITLE8=Seven Days a Week
TTITLE9=Lilly Stone
TTITLE10=Neen déi Schnëss
EXTD=YEAR: 2011
EXTT0=
EXTT1=
EXTT2=
EXTT3=
EXTT4=
EXTT5=
EXTT6=
EXTT7=
EXTT8=
EXTT9=
EXTT10=
PLAYORDER=
